<?xml version="1.0" standalone="no"?>
<!DOCTYPE svg PUBLIC "-//W3C//DTD SVG 20010904//EN"
 "http://www.w3.org/TR/2001/REC-SVG-20010904/DTD/svg10.dtd">
<svg version="1.0" xmlns="http://www.w3.org/2000/svg"
 width="500.000000pt" height="499.000000pt" viewBox="0 0 500.000000 499.000000"
 preserveAspectRatio="xMidYMid meet">

<g transform="translate(0.000000,499.000000) scale(0.100000,-0.100000)"
fill="#000000" stroke="none">
<path d="M52 3380 l-22 -21 0 -842 c1 -736 3 -845 16 -862 15 -20 27 -20 537
-20 504 0 525 1 602 22 115 31 163 54 222 107 67 60 96 112 122 215 20 80 21
109 21 532 0 490 -5 542 -58 647 -34 67 -118 146 -191 179 -31 13 -105 33
-165 44 -97 17 -160 19 -585 19 -466 0 -478 0 -499 -20z m879 -450 c67 -19 69
-32 69 -407 0 -196 -4 -343 -11 -365 -16 -61 -41 -68 -239 -68 l-170 0 0 425
0 425 158 0 c86 0 173 -5 193 -10z"/>
<path d="M1899 3381 l-24 -19 0 -847 0 -847 24 -19 c22 -18 47 -19 631 -19
583 0 609 1 631 19 23 19 24 25 27 178 2 87 -1 176 -5 198 -13 62 -26 64 -420
64 l-343 1 0 110 0 110 259 0 c326 0 302 -12 309 162 5 126 -2 222 -17 246
-12 20 -24 20 -298 21 l-253 1 0 100 0 100 345 0 c403 0 409 1 420 72 4 24 5
112 3 196 -3 148 -4 155 -27 173 -22 18 -48 19 -631 19 -584 0 -609 -1 -631
-19z"/>
<path d="M3479 3381 l-24 -19 0 -414 c0 -377 2 -418 19 -468 20 -61 120 -318
141 -365 8 -16 48 -117 89 -222 42 -106 83 -204 92 -218 28 -43 64 -47 444
-43 398 3 385 1 418 77 29 65 44 109 42 117 -1 4 2 10 7 13 4 3 19 33 31 66
13 33 29 74 36 90 7 17 43 107 80 200 37 94 76 190 86 215 36 88 41 161 38
568 -3 376 -4 394 -22 408 -29 21 -473 21 -502 0 -18 -14 -19 -33 -24 -413
l-6 -398 -28 -80 c-15 -44 -29 -87 -31 -95 -8 -31 -80 -236 -88 -247 -5 -7
-28 -13 -53 -13 -42 0 -46 2 -60 37 -16 37 -72 196 -79 223 -2 8 -17 49 -32
90 l-28 75 -5 398 -5 399 -24 19 c-21 17 -42 19 -256 19 -214 0 -235 -2 -256
-19z"/>
<path d="M4512 1030 c-104 -11 -180 -51 -209 -110 -22 -42 -23 -56 -23 -271 0
-125 3 -241 6 -259 4 -18 23 -49 43 -70 53 -56 124 -75 281 -75 149 0 224 20
276 71 48 49 56 106 52 357 -3 233 -7 249 -68 301 -58 48 -208 72 -358 56z
m170 -217 c16 -14 18 -34 18 -178 0 -189 0 -190 -90 -190 -90 0 -90 0 -90 196
0 193 -2 188 89 189 37 0 60 -5 73 -17z"/>
<path d="M3634 1007 c-3 -8 -4 -52 -2 -98 l3 -84 68 -3 67 -3 0 -179 0 -180
-59 0 c-38 0 -63 -5 -70 -14 -8 -9 -11 -45 -9 -98 l3 -83 255 0 255 0 3 89 c2
65 -1 92 -10 98 -7 4 -39 8 -71 8 l-57 0 2 178 3 177 65 5 65 5 0 95 0 95
-253 3 c-205 2 -253 0 -258 -11z"/>
<path d="M3238 539 c-16 -9 -18 -26 -18 -129 0 -65 3 -125 6 -134 9 -24 269
-24 278 0 3 9 6 69 6 134 0 108 -2 120 -19 130 -25 13 -230 13 -253 -1z"/>
</g>
</svg>
